<svg width="20" height="20" viewBox="0 0 20 20" fill="none" xmlns="http://www.w3.org/2000/svg">
<path fill-rule="evenodd" clip-rule="evenodd" d="M9.99987 7.64167C8.69505 7.64167 7.64154 8.69518 7.64154 10C7.64154 10.4253 7.75314 10.8221 7.95011 11.1659L11.1657 7.95024C10.8219 7.75327 10.4252 7.64167 9.99987 7.64167ZM6.39154 10C6.39154 8.00482 8.00469 6.39167 9.99987 6.39167C10.998 6.39167 11.8966 6.7962 12.5501 7.44973C12.7942 7.6938 12.7942 8.08953 12.5501 8.33361L8.33348 12.5503C8.0894 12.7944 7.69367 12.7944 7.44959 12.5503C6.79607 11.8967 6.39154 10.9982 6.39154 10Z" fill="#383E47"/>
<path fill-rule="evenodd" clip-rule="evenodd" d="M1.88112 7.5058C3.87355 4.37383 6.79322 2.48333 9.99987 2.48333C11.8746 2.48333 13.6711 3.13634 15.2262 4.30936C15.5018 4.51722 15.5567 4.90913 15.3488 5.1847C15.141 5.46028 14.7491 5.51517 14.4735 5.30731C13.112 4.28033 11.5752 3.73333 9.99987 3.73333C7.32333 3.73333 4.75978 5.30933 2.93555 8.17712L2.93503 8.17794C2.63954 8.64087 2.4707 9.30354 2.4707 10.0042C2.4707 10.7048 2.63954 11.3675 2.93503 11.8304C3.56317 12.8163 4.29079 13.6609 5.07406 14.3345C5.33577 14.5595 5.36547 14.9542 5.1404 15.2159C4.91533 15.4776 4.52072 15.5073 4.25901 15.2822C3.37561 14.5225 2.56961 13.5832 1.88109 12.5025C1.42678 11.7905 1.2207 10.8784 1.2207 10.0042C1.2207 9.12996 1.42679 8.21781 1.88112 7.5058Z" fill="#383E47"/>
<path fill-rule="evenodd" clip-rule="evenodd" d="M16.3165 6.12133C16.5854 5.90498 16.9789 5.94764 17.1952 6.21661C17.5151 6.61433 17.8294 7.04171 18.1192 7.49844C18.5731 8.21031 18.779 9.12203 18.779 9.99583C18.779 10.87 18.573 11.7822 18.1186 12.4942C16.1262 15.6262 13.2065 17.5167 9.99987 17.5167C8.88609 17.5167 7.79556 17.2812 6.774 16.851C6.45587 16.7171 6.30657 16.3506 6.44051 16.0325C6.57446 15.7143 6.94094 15.565 7.25907 15.699C8.13751 16.0688 9.06365 16.2667 9.99987 16.2667C12.6764 16.2667 15.24 14.6907 17.0642 11.8229L17.0647 11.8221C17.3602 11.3591 17.529 10.6965 17.529 9.99583C17.529 9.2952 17.3602 8.63254 17.0647 8.16961L17.0638 8.16822C16.8037 7.75829 16.518 7.369 16.2212 7.00006C16.0049 6.73109 16.0475 6.33767 16.3165 6.12133Z" fill="#383E47"/>
<path fill-rule="evenodd" clip-rule="evenodd" d="M13.0382 9.9687C13.3777 10.0313 13.6021 10.3572 13.5395 10.6967C13.2758 12.1265 12.1181 13.2843 10.6882 13.548C10.3488 13.6106 10.0228 13.3861 9.96023 13.0467C9.89764 12.7072 10.1221 12.3813 10.4615 12.3187C11.3817 12.149 12.1406 11.3901 12.3102 10.47C12.3728 10.1305 12.6988 9.9061 13.0382 9.9687Z" fill="#383E47"/>
<path fill-rule="evenodd" clip-rule="evenodd" d="M7.94181 12.0581C8.18589 12.3021 8.18589 12.6979 7.94181 12.9419L3.77514 17.1086C3.53107 17.3527 3.13534 17.3527 2.89126 17.1086C2.64718 16.8645 2.64718 16.4688 2.89126 16.2247L7.05793 12.0581C7.30201 11.814 7.69773 11.814 7.94181 12.0581Z" fill="#383E47"/>
<path fill-rule="evenodd" clip-rule="evenodd" d="M17.1085 2.89139C17.3526 3.13547 17.3526 3.5312 17.1085 3.77528L12.9418 7.94194C12.6977 8.18602 12.302 8.18602 12.0579 7.94194C11.8139 7.69786 11.8139 7.30214 12.0579 7.05806L16.2246 2.89139C16.4687 2.64731 16.8644 2.64731 17.1085 2.89139Z" fill="#383E47"/>
</svg>
